<?xml version="1.0" encoding="utf-8"?>
<!-- Generator: Adobe Illustrator 25.2.1, SVG Export Plug-In . SVG Version: 6.00 Build 0)  -->
<svg version="1.1" id="Camada_1" xmlns="http://www.w3.org/2000/svg" xmlns:xlink="http://www.w3.org/1999/xlink" x="0px" y="0px"
	 viewBox="0 0 64 64" style="enable-background:new 0 0 64 64;" xml:space="preserve">
<style type="text/css">
	.st0{fill:#00894B;}
</style>
<g id="icon_chat" transform="translate(-8979 -6240)">
	<g id="chat-2" transform="translate(8981.667 6246.667)">
		<path id="Caminho_5338" class="st0" d="M51.3,20.9c-0.6,0-1.2,0.5-1.2,1.2s0.5,1.2,1.2,1.2c0.6,0,1.2-0.5,1.2-1.2
			C52.4,21.4,51.9,20.9,51.3,20.9z"/>
		<path id="Caminho_5339" class="st0" d="M32,9.3c0.6,0,1.2-0.5,1.2-1.2S32.7,7,32,7c-0.6,0-1.2,0.5-1.2,1.2
			C30.9,8.8,31.4,9.3,32,9.3z"/>
		<path id="Caminho_5340" class="st0" d="M55.9,13.9H40.1V3.5c0-1.9-1.6-3.5-3.5-3.5H3.5C1.6,0,0,1.6,0,3.5v23.2
			c0,1.9,1.6,3.5,3.5,3.5H7V36c0,0.6,0.5,1.2,1.2,1.2c0.3,0,0.6-0.1,0.8-0.3l6.6-6.6h3.7v10.4c0,1.9,1.6,3.5,3.5,3.5h21.1l6.6,6.6
			c0.5,0.5,1.2,0.5,1.6,0c0.2-0.2,0.3-0.5,0.3-0.8v-5.8h3.5c1.9,0,3.5-1.6,3.5-3.5V17.4C59.4,15.5,57.8,13.9,55.9,13.9L55.9,13.9z
			 M8.1,16.2h11.3c-0.1,0.4-0.2,0.8-0.2,1.2v3.5H8.1C7.5,20.9,7,21.4,7,22c0,0.6,0.5,1.2,1.2,1.2c0,0,0,0,0,0h11.1v4.6h-4.2
			c-0.3,0-0.6,0.1-0.8,0.3l-5,5V29c0-0.6-0.5-1.2-1.2-1.2H3.5c-0.6,0-1.2-0.5-1.2-1.2V3.5c0-0.6,0.5-1.2,1.2-1.2h33.2
			c0.6,0,1.2,0.5,1.2,1.2v10.4H8.1c-0.6,0-1.2,0.5-1.2,1.2S7.5,16.2,8.1,16.2z M57.1,40.6c0,0.6-0.5,1.2-1.2,1.2h-4.6
			c-0.6,0-1.2,0.5-1.2,1.2v4.2l-5-5c-0.2-0.2-0.5-0.3-0.8-0.3H22.7c-0.6,0-1.2-0.5-1.2-1.2V17.4c0-0.6,0.5-1.2,1.2-1.2h33.2
			c0.6,0,1.2,0.5,1.2,1.2V40.6z"/>
		<path id="Caminho_5341" class="st0" d="M8.1,9.3h19.3c0.6,0,1.2-0.5,1.2-1.2C28.5,7.5,28,7,27.4,7H8.1C7.5,7,7,7.5,7,8.1
			C7,8.8,7.5,9.3,8.1,9.3z"/>
		<path id="Caminho_5342" class="st0" d="M27.4,23.2h19.3c0.6,0,1.2-0.5,1.2-1.2s-0.5-1.2-1.2-1.2l0,0H27.4c-0.6,0-1.2,0.5-1.2,1.2
			S26.7,23.2,27.4,23.2z"/>
		<path id="Caminho_5343" class="st0" d="M51.3,27.8H27.4c-0.6,0-1.2,0.5-1.2,1.2s0.5,1.2,1.2,1.2h23.9c0.6,0,1.2-0.5,1.2-1.2
			S51.9,27.8,51.3,27.8z"/>
		<path id="Caminho_5344" class="st0" d="M51.3,34.8H27.4c-0.6,0-1.2,0.5-1.2,1.2s0.5,1.2,1.2,1.2h23.9c0.6,0,1.2-0.5,1.2-1.2
			S51.9,34.8,51.3,34.8z"/>
	</g>
</g>
</svg>
