<svg xmlns="http://www.w3.org/2000/svg" width="30" height="30" viewBox="0 0 30 30"><defs><style>.a{fill:#fff;stroke:#ccc;}.b{fill:#006e95;fill-rule:evenodd;}.c{stroke:none;}.d{fill:none;}</style></defs><g transform="translate(-955 -497)"><g class="a" transform="translate(955 497)"><rect class="c" width="30" height="30" rx="4"/><rect class="d" x="0.5" y="0.5" width="29" height="29" rx="3.5"/></g><g transform="translate(957.783 499.866)"><g transform="translate(0.4 0.079)"><path class="b" d="M38.941,29.936c0,.613-.388.9-1.083.9H36.53v-.613h1.328a.422.422,0,0,0,.266-.061.259.259,0,0,0,.082-.184.312.312,0,0,0-.082-.2.355.355,0,0,0-.245-.061c-.634-.02-1.43.02-1.43-.879a.862.862,0,0,1,.981-.858H38.8v.613H37.531a.483.483,0,0,0-.266.041.293.293,0,0,0-.1.225.222.222,0,0,0,.143.2,1.042,1.042,0,0,0,.266.041h.368a1.159,1.159,0,0,1,.8.225A.882.882,0,0,1,38.941,29.936Zm-2.881-.613a1.16,1.16,0,0,0-.8-.225H34.9a1.04,1.04,0,0,1-.266-.041.222.222,0,0,1-.143-.2.24.24,0,0,1,.1-.225.483.483,0,0,1,.266-.041h1.267v-.613H34.752c-.736,0-.981.45-.981.858,0,.9.8.858,1.43.879a.355.355,0,0,1,.245.061.312.312,0,0,1,.082.2.259.259,0,0,1-.082.184.463.463,0,0,1-.266.061H33.853v.613h1.328c.695,0,1.083-.286,1.083-.9A.882.882,0,0,0,36.06,29.323Zm-2.616.92H31.83V29.67H33.4V29.1H31.83v-.531h1.614v-.593H31.156v2.861h2.289ZM30.42,28.117a1.715,1.715,0,0,0-.838-.143H28.009v2.861H28.7V29.793h.736c.245,0,.388.02.49.123a.912.912,0,0,1,.123.572v.347h.674v-.552a.943.943,0,0,0-.1-.531.8.8,0,0,0-.347-.245.788.788,0,0,0,.49-.756A.642.642,0,0,0,30.42,28.117Zm-3.883-.143H24.351l-.879.94-.838-.94H19.876v2.861h2.718l.879-.94.838.94h1.328v-.96H26.5c.593,0,1.185-.164,1.185-.96C27.682,28.137,27.069,27.974,26.538,27.974Zm3.331,1.185a.846.846,0,0,1-.327.041l-.838.02v-.654h.838a.554.554,0,0,1,.327.061.26.26,0,0,1,.143.245A.357.357,0,0,1,29.868,29.159Zm-3.331.143h-.9v-.736h.9c.245,0,.409.1.409.347A.37.37,0,0,1,26.538,29.3Zm-2.636.1,1.063-1.124V30.59Zm-1.655.838h-1.7V29.67h1.512V29.1H20.551v-.531h1.716l.756.838ZM37.041,25.91H36.06l-1.287-2.145V25.91H33.383l-.266-.633h-1.43l-.266.633h-.8a1.478,1.478,0,0,1-1-.327,1.5,1.5,0,0,1-.347-1.083,1.476,1.476,0,0,1,.368-1.124,1.387,1.387,0,0,1,1.042-.327h.654v.613h-.654a.723.723,0,0,0-.531.164.927.927,0,0,0-.184.654,1.023,1.023,0,0,0,.184.674.681.681,0,0,0,.47.143h.307l.981-2.248h1.022l1.144,2.7v-2.7H35.14l1.206,1.982V23.049h.695Zm-8.807,0h.695V23.049h-.695Zm-.756-2.738a1.645,1.645,0,0,0-.817-.123H25.087V25.91h.674V24.868H26.5a.7.7,0,0,1,.511.123.867.867,0,0,1,.1.552v.368H27.8v-.572a.762.762,0,0,0-.123-.511.854.854,0,0,0-.327-.245.811.811,0,0,0,.49-.756A.708.708,0,0,0,27.478,23.172ZM24.6,25.318H23v-.572h1.573v-.593H23v-.511H24.6v-.593H22.308V25.91H24.6Zm-2.8-2.268H20.673l-.838,1.941-.9-1.941h-1.1v2.7l-1.165-2.7H15.646L14.42,25.91h.736l.266-.633h1.43l.266.633h1.39V23.662l1,2.248H20.1l1-2.248V25.91H21.8Zm11.075,1.614L32.4,23.54l-.47,1.124Zm-5.926-.45a.624.624,0,0,1-.347.061h-.838v-.633H26.6a.9.9,0,0,1,.347.041.3.3,0,0,1,.123.266A.281.281,0,0,1,26.946,24.214Zm-11.279.45.47-1.124.47,1.124ZM38.778,14.079H14.4v10.3l.838-1.9h1.778l.245.47v-.47h2.084l.47,1.022.45-1.022h6.641a1.207,1.207,0,0,1,.776.225v-.225H29.5V22.7a2.436,2.436,0,0,1,1.144-.225h2.636l.245.47v-.47h1.941l.286.47v-.47h1.9v4.005H35.733l-.368-.613v.613H32.974l-.266-.654h-.593l-.266.654H30.6a2.45,2.45,0,0,1-1.1-.245v.245H26.538v-.92c0-.123-.02-.143-.1-.143h-.1v1.063H20.612v-.511l-.2.511H19.2l-.2-.49v.49H16.689l-.245-.654h-.593l-.266.654H14.4V38.559H38.778V31.223a2.5,2.5,0,0,1-1,.184H36v-.245a1.577,1.577,0,0,1-.92.245h-5.6v-.92c0-.123-.02-.123-.123-.123h-.1v1.042H27.416V30.324a2.246,2.246,0,0,1-.96.143h-.2v.94H24l-.531-.613-.593.613H19.263V27.4h3.678l.531.613.572-.613h2.472a1.542,1.542,0,0,1,.96.245V27.4h2.207a1.748,1.748,0,0,1,.94.245V27.4h3.331v.245a1.359,1.359,0,0,1,.838-.245h1.859v.245a1.477,1.477,0,0,1,.858-.245h1.267V14.079Z" transform="translate(-14.4 -14.079)"/></g></g></g></svg>