<svg xmlns="http://www.w3.org/2000/svg" width="49.3" height="30" viewBox="0 0 49.3 30"><defs><style>.a{fill:#fff;stroke:#ccc;}.b{fill:#1a1919;}.b,.c{fill-rule:evenodd;}.c{fill:#fffffe;}.d{stroke:none;}.e{fill:none;}</style></defs><g transform="translate(-1114 -538)"><g class="a" transform="translate(1114 538)"><rect class="d" width="49.3" height="30" rx="4"/><rect class="e" x="0.5" y="0.5" width="48.3" height="29" rx="3.5"/></g><g transform="translate(1121.098 545.316)"><g transform="translate(0.902 0.684)"><g transform="translate(0 0)"><path class="b" d="M7.857,14.831H9.441V0H7.857Z" transform="translate(-5.57)"/><path class="b" d="M15.015,14.831h.491V0h-.491Z" transform="translate(-10.645)"/><path class="b" d="M18.171,14.831h.879V0h-.879Z" transform="translate(-12.883)"/><path class="b" d="M24.1,14.831h.491V0H24.1Z" transform="translate(-17.087)"/><path class="b" d="M26.521,14.831H26.9V0h-.378Z" transform="translate(-18.802)"/><path class="b" d="M3.719,14.831H4.21V0H3.719Z" transform="translate(-2.637)"/><path class="b" d="M0,14.831H.879V0H0Z"/><path class="b" d="M36.834,14.831h1.584V0H36.834Z" transform="translate(-26.114)"/><path class="b" d="M43.991,14.831h.491V0h-.491Z" transform="translate(-31.188)"/><path class="b" d="M47.148,14.831h.879V0h-.879Z" transform="translate(-33.426)"/><path class="b" d="M53.077,14.831h.491V0h-.491Z" transform="translate(-37.63)"/><path class="b" d="M55.5,14.831h.378V0H55.5Z" transform="translate(-39.345)"/><path class="b" d="M32.695,14.831h.491V0h-.491Z" transform="translate(-23.18)"/><path class="b" d="M28.976,14.831h.879V0h-.879Z" transform="translate(-20.543)"/><path class="b" d="M58.935,14.831h.879V0h-.879Z" transform="translate(-41.783)"/><path class="b" d="M64.864,14.831h.491V0h-.491Z" transform="translate(-45.986)"/><path class="b" d="M67.285,14.831h.378V0h-.378Z" transform="translate(-47.703)"/><path class="b" d="M73.459,14.831h.491V0h-.491Z" transform="translate(-52.08)"/><path class="b" d="M69.74,14.831h.879V0H69.74Z" transform="translate(-49.443)"/><path class="b" d="M77.388,14.831h.491V0h-.491Z" transform="translate(-54.865)"/><path class="b" d="M79.808,14.831h.378V0h-.378Z" transform="translate(-56.581)"/><path class="b" d="M85.983,14.831h.491V0h-.491Z" transform="translate(-60.959)"/><path class="b" d="M82.264,14.831h.879V0h-.879Z" transform="translate(-58.322)"/><path class="b" d="M89.14,14.831h1.584V0H89.14Z" transform="translate(-63.197)"/><path class="b" d="M96.3,14.831h.491V0H96.3Z" transform="translate(-68.271)"/><path class="b" d="M99.453,14.831h.879V0h-.879Z" transform="translate(-70.509)"/><path class="b" d="M105.383,14.831h.491V0h-.491Z" transform="translate(-74.713)"/><path class="b" d="M107.8,14.831h.378V0H107.8Z" transform="translate(-76.428)"/><path class="b" d="M111.241,14.831h.879V0h-.879Z" transform="translate(-78.866)"/><path class="c" d="M6.156,30.825H36.515V22.513H6.156Z" transform="translate(-4.364 -15.961)"/><path class="b" d="M8.123,31.658v-7.52h2.822a3.5,3.5,0,0,1,1.383.228,1.771,1.771,0,0,1,.814.7,1.836,1.836,0,0,1,.3.992,1.713,1.713,0,0,1-.261.907,1.863,1.863,0,0,1-.788.688,1.952,1.952,0,0,1,1.049.683,1.82,1.82,0,0,1,.368,1.138,2.2,2.2,0,0,1-.224.984,1.906,1.906,0,0,1-.552.7,2.336,2.336,0,0,1-.823.371,5,5,0,0,1-1.215.126Zm1-4.359h1.626a3.629,3.629,0,0,0,.949-.088,1.051,1.051,0,0,0,.572-.376,1.086,1.086,0,0,0,.193-.658,1.2,1.2,0,0,0-.18-.66.905.905,0,0,0-.513-.392,4.3,4.3,0,0,0-1.143-.105h-1.5Zm0,3.476h1.873a4.258,4.258,0,0,0,.679-.037,1.6,1.6,0,0,0,.574-.2,1.1,1.1,0,0,0,.38-.42,1.31,1.31,0,0,0,.149-.635,1.246,1.246,0,0,0-.217-.734,1.132,1.132,0,0,0-.6-.438,3.694,3.694,0,0,0-1.1-.126H9.121v2.594Z" transform="translate(-5.759 -17.113)"/><path class="b" d="M30.751,33.692a2.8,2.8,0,0,1,.842-2.237,2.537,2.537,0,0,1,1.714-.6,2.449,2.449,0,0,1,1.836.735,2.791,2.791,0,0,1,.712,2.029,3.594,3.594,0,0,1-.315,1.651,2.232,2.232,0,0,1-.919.935,2.668,2.668,0,0,1-1.315.333,2.452,2.452,0,0,1-1.85-.732A2.92,2.92,0,0,1,30.751,33.692Zm.945,0a2.3,2.3,0,0,0,.457,1.563,1.53,1.53,0,0,0,2.3,0,2.364,2.364,0,0,0,.457-1.591,2.234,2.234,0,0,0-.46-1.526,1.531,1.531,0,0,0-2.3,0,2.3,2.3,0,0,0-.457,1.56Z" transform="translate(-21.801 -21.872)"/><path class="b" d="M51.941,31.658h.924v-7.52h-.924Z" transform="translate(-36.824 -17.113)"/><path class="b" d="M63.008,34.653l.956.126a2.311,2.311,0,0,1-.833,1.294,2.511,2.511,0,0,1-1.556.46,2.484,2.484,0,0,1-1.891-.735,2.869,2.869,0,0,1-.7-2.061,3,3,0,0,1,.705-2.129,2.389,2.389,0,0,1,1.833-.758,2.32,2.32,0,0,1,1.781.742,2.956,2.956,0,0,1,.691,2.09c0,.054,0,.136-.005.245H59.93a2.091,2.091,0,0,0,.508,1.373,1.51,1.51,0,0,0,1.136.476,1.4,1.4,0,0,0,.865-.268A1.773,1.773,0,0,0,63.008,34.653Zm-3.025-1.481h3.036a1.843,1.843,0,0,0-.348-1.031,1.411,1.411,0,0,0-1.141-.534,1.464,1.464,0,0,0-1.068.425,1.7,1.7,0,0,0-.478,1.139Z" transform="translate(-41.818 -21.872)"/><path class="b" d="M80.83,31.239l.126.816a3.433,3.433,0,0,1-.695.082,1.571,1.571,0,0,1-.779-.159.892.892,0,0,1-.389-.418,3.327,3.327,0,0,1-.112-1.093v-3.14H78.3v-.714h.683V25.265l.924-.555v1.9h.924v.714h-.924V30.52a1.581,1.581,0,0,0,.049.509.384.384,0,0,0,.157.18.623.623,0,0,0,.315.066,2.9,2.9,0,0,0,.4-.037" transform="translate(-55.511 -17.518)"/><path class="b" d="M88.939,33.692a2.8,2.8,0,0,1,.842-2.237,2.537,2.537,0,0,1,1.714-.6,2.449,2.449,0,0,1,1.836.735,2.791,2.791,0,0,1,.712,2.029,3.59,3.59,0,0,1-.315,1.651,2.23,2.23,0,0,1-.919.935,2.667,2.667,0,0,1-1.315.333,2.453,2.453,0,0,1-1.85-.732A2.92,2.92,0,0,1,88.939,33.692Zm.945,0a2.306,2.306,0,0,0,.457,1.563,1.53,1.53,0,0,0,2.3,0,2.366,2.366,0,0,0,.457-1.591,2.236,2.236,0,0,0-.46-1.526,1.532,1.532,0,0,0-2.3,0,2.3,2.3,0,0,0-.457,1.56Z" transform="translate(-63.055 -21.872)"/></g></g></g></g></svg>