<svg xmlns="http://www.w3.org/2000/svg" width="30" height="30" viewBox="0 0 30 30"><defs><style>.a{fill:#fff;stroke:#ccc;}.b{fill:#fbc707;}.c{fill:#38a7e4;}.d{fill:#ef3120;}.e{fill:#231f20;}.f{stroke:none;}.g{fill:none;}</style></defs><g transform="translate(-917 -497)"><g class="a" transform="translate(917 497)"><rect class="f" width="30" height="30" rx="4"/><rect class="g" x="0.5" y="0.5" width="29" height="29" rx="3.5"/></g><g transform="translate(919.604 507.296)"><g transform="translate(0.174 0.704)"><g transform="translate(0 0)"><path class="b" d="M25.262-69.607a2.7,2.7,0,0,1,.859-.139,2.708,2.708,0,0,1,2.653,2.167l1.856-.379a4.6,4.6,0,0,0-4.51-3.683,4.589,4.589,0,0,0-1.46.236Z" transform="translate(-21.518 71.64)"/><path class="c" d="M2.035-55.856l1.256-1.419A2.7,2.7,0,0,1,2.377-59.3a2.7,2.7,0,0,1,.913-2.027l-1.256-1.42A4.591,4.591,0,0,0,.482-59.3a4.592,4.592,0,0,0,1.553,3.448" transform="translate(-0.482 63.906)"/><path class="d" d="M28.763-32.061A2.707,2.707,0,0,1,26.11-29.9a2.687,2.687,0,0,1-.86-.139l-.6,1.8A4.593,4.593,0,0,0,26.11-28a4.6,4.6,0,0,0,4.509-3.678Z" transform="translate(-21.507 37.207)"/><path class="e" d="M83.909-49.328v0l-.053-.036a1.487,1.487,0,0,1-.688.576,1.338,1.338,0,0,1-1.477-.148l-.035.053h0l-.647.967a2.774,2.774,0,0,0,.514.282,2.678,2.678,0,0,0,2.164-.03,2.663,2.663,0,0,0,1.208-1.006Zm-2.018-2.386a1.4,1.4,0,0,0-.847,1.484l2.548-1.1a1.352,1.352,0,0,0-1.7-.388M80.2-48.767a3.259,3.259,0,0,1-.193-.372,2.732,2.732,0,0,1-.06-2.067,2.728,2.728,0,0,1,1.468-1.6,2.827,2.827,0,0,1,2.6.189,2.775,2.775,0,0,1,1.159,1.4c.036.083.066.171.1.246Z" transform="translate(-69.463 55.458)"/><path class="e" d="M127.655-62.224v5.377l.836.339-.475,1.108-.923-.383a1.049,1.049,0,0,1-.455-.382,1.205,1.205,0,0,1-.178-.666v-5.392Z" transform="translate(-110.082 63.448)"/><path class="e" d="M143.717-45.479a1.521,1.521,0,0,1,.522-1.147l-.858-.956a2.8,2.8,0,0,0-.949,2.1,2.8,2.8,0,0,0,.946,2.105l.856-.957a1.522,1.522,0,0,1-.519-1.147" transform="translate(-123.977 50.711)"/><path class="e" d="M158.052-27.8a1.535,1.535,0,0,1-.483-.079l-.41,1.218a2.809,2.809,0,0,0,.892.145,2.812,2.812,0,0,0,2.755-2.243l-1.259-.257a1.525,1.525,0,0,1-1.494,1.215" transform="translate(-136.789 34.557)"/><path class="e" d="M158.094-53a2.809,2.809,0,0,0-.891.143l.406,1.219a1.543,1.543,0,0,1,.483-.078,1.524,1.524,0,0,1,1.493,1.222l1.259-.256A2.81,2.81,0,0,0,158.094-53" transform="translate(-136.827 55.424)"/></g></g></g></g></svg>