<svg xmlns="http://www.w3.org/2000/svg" width="30" height="30" viewBox="0 0 30 30"><defs><style>.a{fill:#fff;stroke:#ccc;}.b{fill:#292d78;}.b,.c,.d{fill-rule:evenodd;}.c{fill:#fffffe;}.d{fill:#1a1919;}.e{stroke:none;}.f{fill:none;}</style></defs><g transform="translate(-993 -497)"><g class="a" transform="translate(993 497)"><rect class="e" width="30" height="30" rx="4"/><rect class="f" x="0.5" y="0.5" width="29" height="29" rx="3.5"/></g><g transform="translate(996 502.384)"><g transform="translate(0 0.616)"><g transform="translate(0 0)"><path class="b" d="M66.68,9.616A4.808,4.808,0,0,0,66.68,0H60.467a4.808,4.808,0,1,0,0,9.616H66.68" transform="translate(-51.197)"/><path class="c" d="M61.384,9.512V3.68a3.042,3.042,0,0,0,0,5.832ZM63.19,3.7V9.489a3.04,3.04,0,0,0,0-5.786Zm-.934-1.759A4.655,4.655,0,1,1,57.6,6.6a4.664,4.664,0,0,1,4.655-4.655Z" transform="translate(-52.985 -1.788)"/><path class="d" d="M87.359,201.378l.663-.138a.039.039,0,0,1,.04.052l-.213.813a3.47,3.47,0,0,1,.5-.71.4.4,0,0,1,.271-.138c.208.017.179.312.092.4a.29.29,0,0,1-.179.1.163.163,0,0,1-.087-.023.131.131,0,0,1-.063-.081c-.012-.029-.012-.04-.017-.052-.017-.029-.035-.012-.04-.006a1.33,1.33,0,0,0-.156.185,3.145,3.145,0,0,0-.329.588,3.711,3.711,0,0,0-.138.352c-.052.179-.087.283-.1.317l-.063.288h-.346l.386-1.431a1.2,1.2,0,0,0,.04-.323.1.1,0,0,0-.029-.069.161.161,0,0,0-.1-.035.36.36,0,0,0-.138-.017l.012-.081" transform="translate(-80.206 -185.117)"/><path class="d" d="M52.126,194.328l-.15.588h.352l-.035.15h-.352l-.346,1.361a.827.827,0,0,0-.035.231.086.086,0,0,0,.017.058.058.058,0,0,0,.04.023c.035,0,.075-.029.133-.081a1.754,1.754,0,0,0,.19-.231l.069.058a1.624,1.624,0,0,1-.352.433.483.483,0,0,1-.265.087.188.188,0,0,1-.144-.063.232.232,0,0,1-.058-.162,1.823,1.823,0,0,1,.063-.381l.335-1.333H51.3l.017-.092a1.045,1.045,0,0,0,.4-.208,1.61,1.61,0,0,0,.323-.438h.087" transform="translate(-47.091 -178.759)"/><path class="d" d="M163.294,194.832l-.15.588h.352l-.04.144h-.346l-.346,1.361a.655.655,0,0,0-.035.231.1.1,0,0,0,.017.063.05.05,0,0,0,.035.017.253.253,0,0,0,.138-.081,1.153,1.153,0,0,0,.19-.231l.069.058a1.669,1.669,0,0,1-.352.438.474.474,0,0,1-.265.081.181.181,0,0,1-.15-.063.247.247,0,0,1-.052-.162,1.582,1.582,0,0,1,.063-.381l.335-1.327-.294-.006.023-.092a1.1,1.1,0,0,0,.392-.2,1.5,1.5,0,0,0,.323-.438h.092" transform="translate(-149.352 -179.222)"/><g transform="translate(0 14.985)"><path class="d" d="M1.234,4.8l-.023.087H0L.029,4.8a.673.673,0,0,0,.219-.035.284.284,0,0,0,.133-.11,1.4,1.4,0,0,0,.138-.386L1,2.381a1.919,1.919,0,0,0,.058-.358.165.165,0,0,0-.023-.1.173.173,0,0,0-.081-.063.615.615,0,0,0-.213-.023l.029-.087,1.194.006-.023.087a.609.609,0,0,0-.225.023A.309.309,0,0,0,1.575,2a1.84,1.84,0,0,0-.127.381L.963,4.267A1.74,1.74,0,0,0,.894,4.6a.194.194,0,0,0,.029.1A.189.189,0,0,0,1,4.763a1.417,1.417,0,0,0,.231.035" transform="translate(0 -1.664)"/><path class="d" d="M274.636,3.356c-.012.04-.167.5.115.306A.888.888,0,0,0,275,3.391l.063.069a1.4,1.4,0,0,1-.375.41c-.144.11-.433.144-.461-.11a1.128,1.128,0,0,1,.046-.363l.571-2.134c.04-.162.075-.375-.11-.4a.7.7,0,0,0-.127-.006l.006-.087.669-.115c.035-.006.058.006.046.052l-.692,2.648" transform="translate(-252.255 -0.655)"/></g><path class="d" d="M183.952,189.072a.194.194,0,0,1,.15.069.209.209,0,0,1,.058.156.232.232,0,0,1-.058.162.21.21,0,0,1-.15.063.22.22,0,0,1-.15-.063.232.232,0,0,1-.058-.162.209.209,0,0,1,.058-.156.194.194,0,0,1,.15-.069" transform="translate(-169.023 -173.924)"/><g transform="translate(5.186 11.214)"><path class="d" d="M.947.584a.218.218,0,0,1,.162.069.241.241,0,0,1,.063.167A.231.231,0,0,1,1.1.988a.2.2,0,0,1-.156.069A.215.215,0,0,1,.791.988.226.226,0,0,1,.728.821.217.217,0,0,1,.791.653.2.2,0,0,1,.947.584" transform="translate(-0.728 -0.584)"/><path class="d" d="M113.52,61.626l-.45,1.575c-.075.254.017.386.2.219a1.06,1.06,0,0,0,.225-.265l.069.052c-.092.167-.392.571-.681.554a.178.178,0,0,1-.133-.058.2.2,0,0,1-.063-.138,1.111,1.111,0,0,1,.029-.306l.277-1,.058-.248c.023-.11-.023-.2-.121-.208a1.311,1.311,0,0,0-.138.006l.012-.092.669-.15c.04,0,.063.017.052.058" transform="translate(-103.714 -56.682)"/></g><path class="d" d="M58.437,153.135l-.456,1.656c-.075.265.012.4.2.231a1.152,1.152,0,0,0,.225-.288l.069.058c-.092.173-.369.611-.7.594a.175.175,0,0,1-.144-.069.273.273,0,0,1-.058-.144,1.046,1.046,0,0,1,.035-.317l.277-1.056.063-.26c.029-.115-.023-.231-.127-.236a.657.657,0,0,0-.144.006l.012-.1.7-.138c.04,0,.052.023.04.063" transform="translate(-52.963 -140.808)"/><g transform="translate(1.684 12.284)"><path class="d" d="M50.788.99l-.265.969C50.667,1.653,51.3.84,51.717.944c.265.069.162.536.11.71l-.271,1c-.087.323.058.311.127.254a2.055,2.055,0,0,0,.265-.369l.063.046c-.081.208-.358.7-.692.663a.192.192,0,0,1-.121-.063.23.23,0,0,1-.052-.144,2.2,2.2,0,0,1,.075-.4l.248-.986c.046-.179.069-.386-.052-.4-.531.023-.963,1.044-1.1,1.534l-.115.4h-.352l.421-1.54.063-.294c.035-.144-.081-.208-.2-.2l-.092.006.017-.092c.219-.035.473-.092.692-.127.017,0,.046.006.035.04" transform="translate(-45.856 -0.935)"/><path class="d" d="M.947,48.244.7,49.075c.138-.294.71-1.015,1.113-.911.254.063.162.513.121.681l-.265.963c-.087.312.069.277.121.231a2.136,2.136,0,0,0,.283-.346l.063.046c-.081.2-.381.669-.7.629a.192.192,0,0,1-.121-.052.285.285,0,0,1-.046-.144,1.337,1.337,0,0,1,.063-.386l.248-.94c.029-.11.081-.381-.04-.381-.513.058-.975,1.05-1.084,1.459l-.1.392L.024,50.3l.4-1.465.058-.254c.029-.138-.087-.179-.2-.185H.209l.012-.087L.907,48.2a.033.033,0,0,1,.04.046" transform="translate(-0.024 -44.37)"/><path class="d" d="M85.121,48.244l-.248.831c.138-.294.715-1.015,1.113-.911.254.063.167.513.121.681l-.265.963c-.081.312.069.277.127.231a2.538,2.538,0,0,0,.265-.335l.063.04c-.081.2-.363.663-.681.623a.169.169,0,0,1-.121-.052.239.239,0,0,1-.046-.144,1.285,1.285,0,0,1,.058-.386l.248-.94c.029-.11.052-.358-.063-.358-.513.058-.952,1.027-1.056,1.436l-.1.392-.34-.012.4-1.465.058-.254c.029-.138-.087-.179-.2-.185h-.081l.012-.087.692-.115a.033.033,0,0,1,.04.046" transform="translate(-77.449 -44.37)"/></g><path class="d" d="M218.513,200.208l-.248.836c.138-.294.715-1.015,1.113-.917.254.063.167.519.121.681l-.265.963c-.081.311.069.277.127.231a1.958,1.958,0,0,0,.265-.335l.063.046c-.081.2-.363.658-.681.617a.169.169,0,0,1-.121-.052.216.216,0,0,1-.046-.144,1.253,1.253,0,0,1,.058-.381l.254-.946c.023-.1.046-.352-.069-.352-.513.058-.952,1.027-1.056,1.436l-.1.387-.34-.006.4-1.465.058-.254c.029-.144-.087-.185-.2-.185h-.075l.006-.087c.213-.035.479-.087.692-.121.017,0,.052.012.04.046" transform="translate(-200.152 -184.085)"/><path class="d" d="M123.84,153.578a5.537,5.537,0,0,0,.681-.156c.04-.006.063.017.058.046l-.225.883a2.433,2.433,0,0,1,.6-.854c.185-.127.386.012.335.254-.046.219-.323.4-.438.063a4.025,4.025,0,0,0-.75,1.546l-.075.312H123.7l.4-1.529c.052-.19.127-.5-.242-.467l-.012-.1" transform="translate(-113.786 -141.129)"/><path class="d" d="M142.2,153.345l-.092.733h-.081c-.006-.248-.087-.617-.41-.617a.28.28,0,0,0-.225.427c.029.046.081.133.138.225.162.254.271.45.335.565a.669.669,0,0,1-.583.969,1.365,1.365,0,0,1-.462-.1c-.046-.017-.087.017-.121.092h-.081l.1-.8h.081c.012.306.1.675.467.675.369-.069.369-.467.156-.8l-.294-.461a.638.638,0,0,1,.017-.75c.329-.317.611-.156.877-.069a.091.091,0,0,0,.1-.092h.081" transform="translate(-129.35 -141.035)"/><path class="d" d="M177.182,139l-.173.986h-.092c-.017-.438-.035-.865-.652-.871a.959.959,0,0,0-.681.306,2.545,2.545,0,0,0-.692,1.748,1.142,1.142,0,0,0,.248.773c.513.6,1.252.208,1.592-.323l.087.1a1.443,1.443,0,0,1-1.24.727,1.23,1.23,0,0,1-.635-.173,1.087,1.087,0,0,1-.415-.479,1.533,1.533,0,0,1-.144-.669,2.342,2.342,0,0,1,.277-1.056,1.939,1.939,0,0,1,1.581-1.108,1.53,1.53,0,0,1,.681.15.208.208,0,0,0,.179-.11h.081" transform="translate(-160.413 -127.825)"/><path class="d" d="M210.326,137.776l-.721,2.867c-.127.5.2.317.4-.029l.069.075c-.236.415-.611.692-.8.519-.075-.069-.092-.213-.017-.508l.588-2.307c.075-.3.127-.5-.242-.473v-.092l.663-.121c.052-.012.081.017.063.069" transform="translate(-192.444 -126.672)"/><path class="d" d="M225.377,153.428,225,154.974a1.14,1.14,0,0,0-.052.312.093.093,0,0,0,.017.063c.1.156.294-.138.41-.312l.063.058a1.779,1.779,0,0,1-.392.508c-.092.075-.311.144-.4.035a.25.25,0,0,1-.058-.162,3.64,3.64,0,0,1,.2-.906c.029-.1.035-.1-.017-.006-.2.363-.646,1.136-1.084,1.131-.2-.006-.26-.2-.26-.335a2.068,2.068,0,0,1,.087-.508l.185-.761a2.313,2.313,0,0,0,.058-.265c.017-.127-.029-.237-.265-.237l.006-.087a4.364,4.364,0,0,0,.617-.115c.063-.012.11,0,.092.069l-.369,1.431c-.017.063-.133.485.046.513.219.029.692-.588.9-1.1a7.55,7.55,0,0,0,.277-.871h.329" transform="translate(-205.516 -141.095)"/><g transform="translate(5.232 16.088)"><path class="d" d="M.687,1.658c-.006.075-.012.138-.012.19a.655.655,0,0,0,.092.415.465.465,0,0,0,.34.127.652.652,0,0,0,.277-.1,1.846,1.846,0,0,0,.323-.265l.063.063A1.08,1.08,0,0,1,.906,2.6a.539.539,0,0,1-.467-.208A.9.9,0,0,1,.3,1.9a1.522,1.522,0,0,1,.185-.7,1.452,1.452,0,0,1,.49-.56A1.072,1.072,0,0,1,1.552.424a.438.438,0,0,1,.311.1.348.348,0,0,1,.1.248.57.57,0,0,1-.133.369,1.219,1.219,0,0,1-.513.369A2.45,2.45,0,0,1,.687,1.658ZM.733,1.5a1.292,1.292,0,0,0,.41-.115.9.9,0,0,0,.358-.3A.569.569,0,0,0,1.61.77c0-.063.017-.115-.017-.156A.139.139,0,0,0,1.466.551c-.133,0-.248.1-.4.265A1.365,1.365,0,0,0,.733,1.5Z" transform="translate(-0.3 -0.424)"/><path class="d" d="M71.244.95l-.415,1.511-.035.185c-.035.167.087.144.185.063a.609.609,0,0,0,.185-.237l.069.058a1.809,1.809,0,0,1-.329.392c-.179.162-.456.237-.456-.075a2.337,2.337,0,0,1,.1-.531,3.258,3.258,0,0,1-.5.617.566.566,0,0,1-.358.127.3.3,0,0,1-.254-.127.621.621,0,0,1-.092-.392,1.809,1.809,0,0,1,.19-.767,1.91,1.91,0,0,1,.485-.669A.793.793,0,0,1,70.5.915c.087,0,.173-.012.225.04s.11.058.138.173L70.915.95Zm-.761.081a.4.4,0,0,0-.231.138,1.411,1.411,0,0,0-.358.577,2.126,2.126,0,0,0-.173.692.5.5,0,0,0,.035.265.162.162,0,0,0,.15.092c.144,0,.323-.15.473-.415a2.334,2.334,0,0,0,.386-1.015.341.341,0,0,0-.069-.271.2.2,0,0,0-.213-.063Z" transform="translate(-63.82 -0.875)"/><path class="d" d="M184,.888l-.421,1.517-.035.179c-.029.173.092.15.19.069a.834.834,0,0,0,.185-.237l.069.058a1.969,1.969,0,0,1-.335.392c-.173.162-.456.237-.456-.075a2.163,2.163,0,0,1,.11-.536,3.566,3.566,0,0,1-.5.623.544.544,0,0,1-.352.121.309.309,0,0,1-.26-.127.641.641,0,0,1-.092-.386,1.739,1.739,0,0,1,.2-.767,1.909,1.909,0,0,1,.485-.669.8.8,0,0,1,.473-.2.327.327,0,0,1,.225.046c.052.046.1.058.133.173l.058-.185Zm-.761.087a.429.429,0,0,0-.236.133,1.545,1.545,0,0,0-.358.583,2.126,2.126,0,0,0-.173.692.538.538,0,0,0,.035.26.164.164,0,0,0,.15.1c.144,0,.323-.156.473-.415a2.334,2.334,0,0,0,.386-1.015.335.335,0,0,0-.063-.271.189.189,0,0,0-.213-.063Z" transform="translate(-167.538 -0.819)"/><path class="d" d="M127.3,1.708a1.454,1.454,0,0,1-.219.738,1.935,1.935,0,0,1-.513.525,1.183,1.183,0,0,1-.635.179.579.579,0,0,1-.461-.2.766.766,0,0,1-.179-.519,1.516,1.516,0,0,1,.19-.675,1.573,1.573,0,0,1,.542-.588,1,1,0,0,1,.536-.185.743.743,0,0,1,.542.2A.822.822,0,0,1,127.3,1.708Zm-.363-.138a.627.627,0,0,0-.115-.358.328.328,0,0,0-.26-.121c-.2.012-.4.133-.6.479a1.906,1.906,0,0,0-.3.986.515.515,0,0,0,.1.335.308.308,0,0,0,.271.127.816.816,0,0,0,.617-.485,2.152,2.152,0,0,0,.283-.963Z" transform="translate(-115.282 -0.941)"/></g><path class="d" d="M252.26,141.11a.664.664,0,0,0,.363-.185c.358-.3.7-1.252.4-1.621a.289.289,0,0,0-.231-.127c-.363,0-.565.427-.629.692l-.2.79C251.885,140.971,251.879,141.1,252.26,141.11Zm.415-3.4-.415,1.661a1.039,1.039,0,0,1,.727-.45.506.506,0,0,1,.386.2.723.723,0,0,1,.15.49,1.6,1.6,0,0,1-1.327,1.615c-.41,0-.692-.069-.588-.508l.554-2.342c.063-.283.1-.467-.219-.427v-.092a2.577,2.577,0,0,0,.663-.2c.035,0,.087-.012.069.052Z" transform="translate(-231.43 -126.625)"/><path class="d" d="M15.131,140.323l-.565,2.175a3.029,3.029,0,0,0-.069.346c-.023.092.069.15.144.167,1.442.358,2.261-1.748,1.557-2.7a.826.826,0,0,0-.7-.283C15.264,140.023,15.189,140.092,15.131,140.323Zm-.744-.335.023-.092h.952a2.335,2.335,0,0,1,.969.162,1.091,1.091,0,0,1,.461.479,1.794,1.794,0,0,1,.075,1.35,1.992,1.992,0,0,1-2,1.344H13.608l.029-.092a.766.766,0,0,0,.231-.035.31.31,0,0,0,.127-.115,1.849,1.849,0,0,0,.138-.415l.513-2.013a1.625,1.625,0,0,0,.063-.375.2.2,0,0,0-.058-.144.337.337,0,0,0-.219-.052Z" transform="translate(-12.518 -128.688)"/><path class="d" d="M101.5,154.478a1.606,1.606,0,0,0,.519-.138.736.736,0,0,0,.415-.629c0-.45-.4-.156-.583.035A1.527,1.527,0,0,0,101.5,154.478Zm-.012.121c-.156,1.1.611.975,1.056.421l.04.075a1.058,1.058,0,0,1-.865.577.562.562,0,0,1-.485-.225.813.813,0,0,1-.144-.5,1.729,1.729,0,0,1,.2-.779,1.613,1.613,0,0,1,.5-.6,1.072,1.072,0,0,1,.617-.208c.381-.006.5.346.265.686a1.557,1.557,0,0,1-1.177.554Z" transform="translate(-92.989 -141.072)"/><path class="d" d="M289.734,187.754h.115a.089.089,0,0,0,.081-.029.093.093,0,0,0,.029-.063.082.082,0,0,0-.035-.069.1.1,0,0,0-.069-.017h-.121Zm.288.265-.092-.231a.13.13,0,0,0,.092-.127.149.149,0,0,0-.058-.11.174.174,0,0,0-.11-.029h-.185v.5h.063v-.213h.133l.092.213Zm-.173-.617a.373.373,0,1,0,.352.369A.361.361,0,0,0,289.85,187.4Zm0-.058a.431.431,0,0,1,0,.86.43.43,0,0,1,0-.86Z" transform="translate(-266.251 -172.334)"/></g></g></g></g></svg>