<svg xmlns="http://www.w3.org/2000/svg" width="30" height="30" viewBox="0 0 30 30"><defs><style>.a{fill:#fff;stroke:#ccc;}.b{fill:#ff5f00;}.c{fill:#eb001b;}.d{fill:#f79e1b;}.e{stroke:none;}.f{fill:none;}</style></defs><g transform="translate(-879 -497)"><g class="a" transform="translate(879 497)"><rect class="e" width="30" height="30" rx="4"/><rect class="f" x="0.5" y="0.5" width="29" height="29" rx="3.5"/></g><g transform="translate(882.845 503.656)"><g transform="translate(0 0)"><path d="M15.887,171.166v-1.151a.675.675,0,0,0-.729-.729.757.757,0,0,0-.652.326.671.671,0,0,0-.614-.326.62.62,0,0,0-.537.269v-.23h-.4v1.842h.4v-1.017c0-.326.173-.48.441-.48s.4.173.4.48v1.017h.4v-1.017a.424.424,0,0,1,.441-.48c.269,0,.4.173.4.48v1.017Zm5.967-1.842H21.2v-.556h-.4v.556h-.365v.365H20.8v.844c0,.422.173.672.633.672a1.073,1.073,0,0,0,.5-.134l-.115-.345a.631.631,0,0,1-.345.1c-.192,0-.269-.115-.269-.307v-.825h.652v-.365Zm3.415-.038a.541.541,0,0,0-.48.269v-.23h-.4v1.842h.4V170.13c0-.307.134-.48.384-.48a1.122,1.122,0,0,1,.249.038l.115-.384a1.266,1.266,0,0,0-.269-.019Zm-5.161.192a1.317,1.317,0,0,0-.748-.192c-.46,0-.767.23-.767.595,0,.307.23.48.633.537l.192.019c.211.038.326.1.326.192,0,.134-.153.23-.422.23a1.059,1.059,0,0,1-.614-.192l-.192.307a1.357,1.357,0,0,0,.787.23c.537,0,.844-.249.844-.595,0-.326-.249-.5-.633-.556l-.192-.019c-.173-.019-.307-.058-.307-.173,0-.134.134-.211.345-.211a1.383,1.383,0,0,1,.576.153l.173-.326Zm10.706-.192a.541.541,0,0,0-.48.269v-.23h-.4v1.842h.4V170.13c0-.307.134-.48.384-.48a1.122,1.122,0,0,1,.249.038l.115-.384a1.266,1.266,0,0,0-.269-.019Zm-5.142.959a.922.922,0,0,0,.978.959.955.955,0,0,0,.652-.211l-.192-.326a.775.775,0,0,1-.48.173.545.545,0,0,1-.556-.595.566.566,0,0,1,.556-.595.775.775,0,0,1,.48.173l.192-.326a.955.955,0,0,0-.652-.211.922.922,0,0,0-.978.959Zm3.722,0v-.921h-.4v.23a.693.693,0,0,0-.576-.269.96.96,0,0,0,0,1.919.646.646,0,0,0,.576-.269v.23h.4Zm-1.477,0a.558.558,0,1,1,1.113,0,.558.558,0,1,1-1.113,0Zm-4.816-.959a.96.96,0,0,0,.019,1.919,1.173,1.173,0,0,0,.748-.249l-.192-.288a.917.917,0,0,1-.537.192.518.518,0,0,1-.556-.441h1.362v-.153a.848.848,0,0,0-.844-.978Zm0,.345a.449.449,0,0,1,.46.441H22.6a.486.486,0,0,1,.5-.441Zm10,.614V168.6h-.4v.959a.693.693,0,0,0-.576-.269.96.96,0,0,0,0,1.919.646.646,0,0,0,.576-.269v.23h.4Zm-1.477,0a.558.558,0,1,1,1.113,0,.558.558,0,1,1-1.113,0Zm-13.468,0v-.921h-.4v.23a.693.693,0,0,0-.576-.269.96.96,0,0,0,0,1.919.646.646,0,0,0,.576-.269v.23h.4Zm-1.5,0a.558.558,0,1,1,1.113,0,.558.558,0,1,1-1.113,0Z" transform="translate(-11.82 -153.86)"/><rect class="b" width="6.044" height="10.859" transform="translate(8.154 1.477)"/><path class="c" d="M8.538,6.907a6.925,6.925,0,0,1,2.628-5.43A6.9,6.9,0,1,0,6.907,13.814a6.865,6.865,0,0,0,4.259-1.477A6.9,6.9,0,0,1,8.538,6.907Z" transform="translate(0 0)"/><path class="d" d="M139.149,6.907a6.9,6.9,0,0,1-11.166,5.43,6.922,6.922,0,0,0,0-10.859,6.9,6.9,0,0,1,11.166,5.43Z" transform="translate(-116.798 0)"/></g></g></g></svg>