<svg xmlns="http://www.w3.org/2000/svg" width="30" height="30" viewBox="0 0 30 30"><defs><style>.a{fill:#fff;stroke:#ccc;}.b{fill:#842124;}.b,.c{fill-rule:evenodd;}.c{fill:#fffffe;}.d{stroke:none;}.e{fill:none;}</style></defs><g transform="translate(-1031 -497)"><g class="a" transform="translate(1031 497)"><rect class="d" width="30" height="30" rx="4"/><rect class="e" x="0.5" y="0.5" width="29" height="29" rx="3.5"/></g><g transform="translate(1034.1 506.744)"><g transform="translate(0 0.256)"><g transform="translate(0 0)"><path class="b" d="M6.588.256H4.1A2.219,2.219,0,0,0,1.844,1.663c-.135.476-.21,1-.315,1.492C.991,5.665.514,8.243,0,10.7H19.364c1.5,0,2.525-.316,2.8-1.5.129-.552.253-1.177.376-1.784C23.024,5.05,23.506,2.686,24,.256H6.588" transform="translate(0 -0.256)"/><path class="c" d="M59.3,69.317c-.269.263-1.024.338-.946-.291.064-.523.633-.634,1.25-.558A1.552,1.552,0,0,1,59.3,69.317Zm-.849-2.038c-.026.144-.065.275-.1.412.308-.077,1.267-.314,1.359.1a.719.719,0,0,1-.061.388c-.867-.082-1.573.062-1.759.679a.767.767,0,0,0,.279.934,1.16,1.16,0,0,0,1.347-.376,1.585,1.585,0,0,0-.036.388h.449a6.963,6.963,0,0,1,.133-1.165,4.6,4.6,0,0,0,.146-.946C60.171,67.026,59.068,67.261,58.45,67.279Zm4.5,2.245c-.351.008-.526-.21-.534-.57-.014-.631.263-1.332.825-1.4a1.368,1.368,0,0,1,.643.1C63.71,68.364,63.773,69.506,62.952,69.524Zm1.165-3.337c-.045.392-.1.769-.182,1.128-1.28-.405-2.065.536-2.051,1.7a.914.914,0,0,0,.182.607,1.18,1.18,0,0,0,1.286.109.906.906,0,0,0,.182-.182c.034-.042.087-.153.1-.121a2.717,2.717,0,0,0-.048.376h.473a33.047,33.047,0,0,1,.582-3.616ZM50.758,69.329c-.279.3-.965.291-1.019-.206a2.472,2.472,0,0,1,.1-.667c.04-.227.069-.444.109-.643.275-.336,1.083-.376,1.165.182A1.851,1.851,0,0,1,50.758,69.329Zm.413-2.05a1.377,1.377,0,0,0-1.213.22c0,.008-.006.009-.012.01l.012-.01v0c0-.081.032-.137.036-.218h-.449c-.187,1.245-.409,2.454-.643,3.652h.522c.076-.466.125-.958.231-1.4.119.459.9.372,1.225.194C51.557,69.364,52.079,67.62,51.171,67.279Zm2.475.874H52.42a.723.723,0,0,1,.692-.607C53.488,67.532,53.757,67.684,53.646,68.153Zm-.5-.922a1.362,1.362,0,0,0-.922.376,2.108,2.108,0,0,0-.437,1.529c.094.841,1.141.81,1.978.607.014-.147.05-.274.073-.412a1.664,1.664,0,0,1-1.3.085c-.268-.169-.269-.6-.182-.971.563-.018,1.147-.014,1.711,0a1.794,1.794,0,0,0,.049-.813C54,67.286,53.578,67.2,53.148,67.23Zm-4.586.049c-.014,0-.013.019-.012.036-.115.86-.271,1.679-.437,2.487h.522c.125-.866.269-1.713.449-2.524Zm13.613.012a.8.8,0,0,0-.995.388c.043-.119.045-.278.085-.4H60.8q-.186,1.3-.449,2.524h.534a5.711,5.711,0,0,1,.121-.91c.112-.7.275-1.469,1.092-1.238C62.129,67.537,62.141,67.4,62.175,67.291Zm-5.86,1.917a1.27,1.27,0,0,1-.049-.485,1.7,1.7,0,0,1,.352-.971,1.279,1.279,0,0,1,1.238-.073c.013-.144.042-.273.061-.412a1.972,1.972,0,0,0-1.723.328,2.072,2.072,0,0,0-.413,1.723c.188.615,1.029.648,1.711.413.03-.124.046-.261.073-.388C57.192,69.535,56.48,69.636,56.315,69.208Zm-.291-1.929a.8.8,0,0,0-.995.425c.038-.132.054-.286.085-.425h-.461c-.113.874-.279,1.695-.437,2.524h.522A9.919,9.919,0,0,1,55,68.177a.728.728,0,0,1,.958-.522C55.97,67.516,56.01,67.41,56.024,67.279ZM47.616,66.26c-.075.484-.158.958-.243,1.432-.54.006-1.092.027-1.614-.012.1-.464.169-.955.267-1.42h-.582c-.209,1.183-.4,2.384-.631,3.543h.594c.093-.594.18-1.195.3-1.759a14.49,14.49,0,0,1,1.6.012c-.1.587-.222,1.153-.315,1.747h.595c.191-1.2.392-2.39.631-3.543Zm1.48.534c.1-.072.238-.4.085-.534a.289.289,0,0,0-.243-.036.293.293,0,0,0-.206.109c-.066.09-.126.36-.024.461s.322.046.388,0Z" transform="translate(-42.702 -63.081)"/></g></g></g></g></svg>