<svg xmlns="http://www.w3.org/2000/svg" width="30" height="30" viewBox="0 0 30 30"><defs><style>.a{fill:#fff;stroke:#ccc;}.b{fill:#1a1f71;}.c{stroke:none;}.d{fill:none;}</style></defs><g class="a"><rect class="c" width="30" height="30" rx="4"/><rect class="d" x="0.5" y="0.5" width="29" height="29" rx="3.5"/></g><g transform="translate(3 12)"><g transform="translate(-75.965 -99.058)"><path class="b" d="M85.078,98.194l-3.142,7.5H79.885l-1.545-5.982a.829.829,0,0,0-.462-.66,8.163,8.163,0,0,0-1.914-.637l.047-.218h3.3a.9.9,0,0,1,.894.765l.817,4.339,2.018-5.1Zm8.032,5.048c.009-1.977-2.736-2.085-2.717-2.97.005-.27.261-.556.822-.628a3.661,3.661,0,0,1,1.912.334l.34-1.589a5.215,5.215,0,0,0-1.814-.332c-1.917,0-3.266,1.019-3.277,2.478-.012,1.079.962,1.681,1.7,2.04.755.367,1.008.6,1.005.932-.005.5-.6.723-1.16.733a4.057,4.057,0,0,1-1.993-.474l-.351,1.644a5.914,5.914,0,0,0,2.157.4c2.037,0,3.37-1.008,3.376-2.567m5.061,2.448h1.794l-1.566-7.5H96.743a.885.885,0,0,0-.826.549l-2.908,6.947h2.035l.4-1.119h2.488Zm-2.164-2.656,1.021-2.815.588,2.815Zm-8.158-4.84-1.6,7.5H84.3l1.6-7.5Z"/></g></g></svg>