<svg xmlns="http://www.w3.org/2000/svg" width="30" height="30" viewBox="0 0 30 30"><defs><style>.a,.d{fill:#fff;}.a{stroke:#ccc;}.b{fill:#b5dc19;}.b,.c,.d,.e{fill-rule:evenodd;}.c{fill:#a3ca3f;}.e{fill:#194084;}.f{stroke:none;}.g{fill:none;}</style></defs><g transform="translate(-1069 -497)"><g class="a" transform="translate(1069 497)"><rect class="f" width="30" height="30" rx="4"/><rect class="g" x="0.5" y="0.5" width="29" height="29" rx="3.5"/></g><g transform="translate(1020.807 1198.024)"><g transform="translate(51.021 -692.688)"><g transform="translate(0 0)"><path class="b" d="M-372.886,0h-19.408V3.825a10.845,10.845,0,0,0,11.1,10.555h12.965V4.4a4.16,4.16,0,0,0-1.236-3.12A5.038,5.038,0,0,0-372.886,0" transform="translate(392.294 0)"/><g transform="translate(3.852 6.664)"><path class="c" d="M-13.839-53.892l-.016-.045-.688-1.954-.016-.045.045-.016,2.011-.708a.652.652,0,0,1,.219-.038.655.655,0,0,1,.619.44l.486,1.378.016.044-.046.016-2.586.911Z" transform="translate(14.559 56.697)"/></g><g transform="translate(3.792 6.615)"><path class="d" d="M-33.792-47.221l-.95.334-.687-1.954,1.637-.576.374-.131a.612.612,0,0,1,.2-.035.608.608,0,0,1,.574.407l.487,1.378Zm0-2.3-1.669.589-.089.031.031.09.689,1.953.031.09.089-.032.919-.323,1.669-.588.09-.031-.032-.09-.485-1.378a.706.706,0,0,0-.665-.471.717.717,0,0,0-.235.041Z" transform="translate(35.551 49.679)"/></g><g transform="translate(4.662 8.689)"><path class="e" d="M-33.878-51.406h0a1.669,1.669,0,0,1-1.571-1.113l-.176-.5-.016-.045.045-.016,2.736-.964a.7.7,0,0,1,.224-.038A.681.681,0,0,1-32-53.63l.5,1.435.017.045-.045.016-1.8.635a1.678,1.678,0,0,1-.554.094" transform="translate(35.641 54.081)"/></g><g transform="translate(4.6 8.642)"><path class="d" d="M-41.17-50.793a1.573,1.573,0,0,1-.319.032,1.62,1.62,0,0,1-1.526-1.081l-.176-.5,2.021-.711.715-.252a.619.619,0,0,1,.208-.035.628.628,0,0,1,.593.419l.505,1.435-1.8.634a1.553,1.553,0,0,1-.22.06m0-2.362-2.052.721-.09.033.031.089.177.5a1.715,1.715,0,0,0,1.616,1.144,1.681,1.681,0,0,0,.319-.03,1.656,1.656,0,0,0,.252-.068l1.8-.634.09-.031-.031-.089-.505-1.434a.72.72,0,0,0-.682-.483.73.73,0,0,0-.24.041Z" transform="translate(43.313 53.437)"/></g><g transform="translate(3.873 1.76)"><path class="e" d="M-126.094-185.183a1.242,1.242,0,0,1-1.413-1.365,2.144,2.144,0,0,1,.466-1.39,1.67,1.67,0,0,1,1.321-.584,1.666,1.666,0,0,1,.995.276,1.1,1.1,0,0,1,.432.913v.025h-.908v-.025c0-.34-.17-.493-.548-.493-.673,0-.85.848-.85,1.3,0,.3.1.65.566.65a.711.711,0,0,0,.669-.561l.006-.019h.912l-.012.034a1.637,1.637,0,0,1-1.637,1.243m3.214-.645a.812.812,0,0,0,.576-.668l.068-.243a1.608,1.608,0,0,1-.609.12l-.035,0-.036,0c-.366.04-.61.138-.61.481,0,.24.239.325.445.325a.931.931,0,0,0,.2-.02m0-1.325.034,0c.545-.054.795-.079.795-.387,0-.329-.4-.355-.518-.355a.8.8,0,0,0-.311.059.494.494,0,0,0-.3.38l-.827.021a1.009,1.009,0,0,1,.5-.858,1.651,1.651,0,0,1,.623-.2,2.577,2.577,0,0,1,.353-.021,1.57,1.57,0,0,1,1.13.325.692.692,0,0,1,.194.495,3.217,3.217,0,0,1-.068.556l-.278,1.257a1.922,1.922,0,0,0-.041.416.589.589,0,0,0,.029.173l.012.034h-.893l-.026-.268a1.211,1.211,0,0,1-.413.261,1.46,1.46,0,0,1-.516.093c-.717,0-1.039-.425-1.039-.846,0-.6.444-.995,1.217-1.088Zm2.6,1.885h-.909l.007-.03.652-3.122,0-.02h.868l-.007.031-.1.433a1.189,1.189,0,0,1,1.033-.548,1.939,1.939,0,0,1,.268.018l.028,0-.005.028-.175.832-.005.026-.026,0-.063-.014a1.5,1.5,0,0,0-.295-.041c-.677,0-.881.539-.982,1.006l-.29,1.382Zm3.055-.632c.51-.122.75-.8.75-1.278,0-.413-.216-.65-.591-.65a.753.753,0,0,0-.16.017c-.516.115-.75.778-.75,1.261a.6.6,0,0,0,.584.668.708.708,0,0,0,.166-.019m0-2.622h.07a.958.958,0,0,1,.874.46l.331-1.545.883-.02-.887,4.34-.851.02.039-.326a.952.952,0,0,1-.459.336,1.294,1.294,0,0,1-.444.075,1.148,1.148,0,0,1-1.215-1.257,2.441,2.441,0,0,1,.425-1.429,1.54,1.54,0,0,1,1.234-.653m.489-1.747a1.856,1.856,0,0,1-.927-.221.89.89,0,0,1-.458-.8v-.156h.867v.131c0,.267.3.407.606.407.125,0,.53-.025.53-.357,0-.2-.1-.262-.3-.326l-.674-.217c-.45-.145-.71-.33-.71-.842,0-.717.725-1.039,1.442-1.039a1.477,1.477,0,0,1,1.09.329.959.959,0,0,1,.247.718v.026h-.868v-.026c-.007-.27-.164-.407-.468-.407-.233,0-.512.05-.512.288,0,.109.064.2.383.3l.44.142c.445.147.857.363.857.94a.963.963,0,0,1-.5.862,2.075,2.075,0,0,1-1.05.252m-5.327-.086h-.93l.007-.033.389-1.873a2.058,2.058,0,0,0,.055-.383c0-.178-.207-.3-.394-.3-.623,0-.816.608-.871.869l-.357,1.7,0,.021h-.932l.007-.033.667-3.2,0-.02h.894l-.007.032-.08.362a1.392,1.392,0,0,1,1.087-.481c.619,0,.96.314.96.885a3.3,3.3,0,0,1-.094.556l-.4,1.873Zm-8.51-1.966h-.711l-.249,1.16h1.185a.653.653,0,0,0,.734-.685c0-.438-.382-.475-.74-.475Zm0-1.7h-.358l-.206.981h1.068a.567.567,0,0,0,.629-.555c0-.291-.155-.427-.487-.427Zm0,3.661h-2.086l.9-4.447,1.185-.02h.7a2.035,2.035,0,0,1,1.063.2.917.917,0,0,1,.4.854,1.149,1.149,0,0,1-.225.695.913.913,0,0,1-.542.345.906.906,0,0,1,.595.9,1.344,1.344,0,0,1-.523,1.1,1.947,1.947,0,0,1-1.192.37Zm10.909-1.994h.7c0-.3-.079-.627-.568-.627a.974.974,0,0,0-.133.008.873.873,0,0,0-.7.619Zm0-1.339.084,0a1.617,1.617,0,0,1,1.1.358,1.36,1.36,0,0,1,.42,1.065,2.682,2.682,0,0,1-.05.506l-1.55.021h-.806l0,.161c0,.38.247.6.679.6a.712.712,0,0,0,.132-.012.8.8,0,0,0,.5-.416l.9-.01h.038l-.014.034a1.539,1.539,0,0,1-1.425,1.107c-.082.007-.167.01-.256.01a1.319,1.319,0,0,1-1.448-1.424,2.164,2.164,0,0,1,.478-1.386,1.678,1.678,0,0,1,1.226-.61m-7.17,1.4.035,0c.56-.056.815-.081.815-.4,0-.336-.405-.363-.531-.363a.781.781,0,0,0-.319.061.5.5,0,0,0-.3.386l-.848.022a1.035,1.035,0,0,1,.515-.878,1.659,1.659,0,0,1,.637-.208,2.91,2.91,0,0,1,.363-.023,1.608,1.608,0,0,1,1.158.334.706.706,0,0,1,.2.5,3.133,3.133,0,0,1-.069.572l-.284,1.287a1.89,1.89,0,0,0-.043.428.627.627,0,0,0,.029.176l.013.036h-.915l-.027-.277a1.21,1.21,0,0,1-.423.268,1.5,1.5,0,0,1-.527.095c-.735,0-1.065-.436-1.065-.866,0-.612.455-1.017,1.247-1.114Zm.029,1.354c.367-.081.477-.381.562-.68l.071-.251a1.646,1.646,0,0,1-.625.125l-.073.005c-.375.041-.626.141-.626.493,0,.246.246.332.456.332a1.15,1.15,0,0,0,.235-.024" transform="translate(132.657 194.822)"/></g></g></g></g></g></svg>